<svg xmlns="http://www.w3.org/2000/svg" width="1000" height="481" fill="none"><g clip-path="url(#a)"><path fill="#fff" d="M287.994 347.136c-9.523-23.764-4.307-57.107 2.784-88.781l1.787-8.145 50.309-215.154-.147.117.176-.351H287.76L176.887 246.165l-5.773-211.578c-15.177 8.35-36.889 7.911-54.117 4.454-17.229-3.457-33.784-9.61-51.217-12.013-17.434-2.403-36.743-.41-49.9 10.49L0 96.087C13.097 85.16 32.26 83.198 49.576 85.6c17.317 2.403 33.784 8.556 50.895 12.013.996.205 1.992.381 2.989.557L70.292 240.012c-20.335 81.602-39.41 113.716-39.41 113.716H87.11s12.6-30.443 30.795-103.694l.176-.089 13.214-53.59 6.417 157.402h38.97l75.36-144.627-16.613 71.024-.938 4.336c-17.228 79.581 15.207 114.39 55.202 119.048 39.175 4.542 50.075-22.063 50.075-22.063-27.894-1.992-44.566-16.262-51.804-34.311zM440.972 150.47l-21.624 96.809c-2.168 9.758-5.274 19.836-9.112 29.183-4.132 10.079-10.08 20.657-19.896 26.136-6.738 3.78-15.177 2.901-18.253-4.835-2.227-5.566-1.612-12.305-.294-18.049L400.39 150.5h-46.03l-28.92 129.479c-11.837 50.25 8.233 73.836 34.311 73.836 11.017 0 20.979-3.017 29.593-9.728a87 87 0 0 0 5.011-4.248l-2.989 14.006h50.163l45.385-203.286h-46.03zm144.832-48.96c2.754-.938 5.626-1.905 8.643-2.93 5.919-1.993 19.134-4.25 25.463-4.19 2.578.029 5.215.732 7.237 2.344 8.321 6.592-6.915 16.379 1.729 25.989 9.844 10.959 30.707-.498 42.427-5.069 15.47-6.036 42.046-18.108 57.575-23.938 42.046-15.764 67.45-19.807 105.54-16.819-16.115-19.573-44.478-26.927-79.433-25.316-11.164.499-26.488 3.311-37.447 5.362-5.948 1.114-11.925 2.169-17.931 3.018-6.124.85-13.244 2.491-19.397 1.143-1.817-.41-3.604-1.23-4.805-2.666-7.999-9.64 14.298-19.69 1.348-29.682-3.077-2.373-7.091-3.223-10.959-3.31-20.247-.528-40.904 5.772-60.301 10.782-1.699.44-3.428.88-5.127 1.319-1.172.293-2.344.615-3.516.908l6.739-30.18h-46.03l-9.552 42.78q-2.067.525-4.132 1.054c-2.11.557-5.098 1.582-8.292 2.432-6.827 1.787-14.504 2.549-16.262-4.805-.439-1.876 0-3.868.644-5.685 3.077-8.438 9.875-14.884 9.025-24.524-1.435-15.998-17.844-19.163-31.204-18.43-19.749 1.055-39.204 6.71-58.133 12.16-19.924 5.742-39.526 12.482-58.952 19.748l-22.151 98.977s39.848-19.954 65.75-29.242c8.614-3.076 31.263-11.515 37.24-4.63 7.999 9.23-9.404 15.09-5.098 26.723 3.575 9.639 16.672 8.233 25.257 6.563 9.699-1.875 19.31-4.63 28.862-7.266 24.495-6.827 50.865-15.267 50.865-15.267l-33.842 33.638-47.173 211.314h46.03l56.081-251.133c1.085-.352 2.168-.733 3.282-1.114zm367.72 48.96-13.917 62.381c-4.747 21.302-8.469 43.336-16.79 63.611-4.13 10.022-10.108 20.657-19.895 26.136-7.236 4.044-16.173 2.227-18.693-6.329-3.047-10.401 1.201-22.151 3.486-32.288 4.952-22.152 10.431-44.449 14.65-66.835.5-2.725.997-5.45 1.437-8.175.908-5.683 1.699-11.427 1.612-17.199-.059-2.784-.294-5.362-1.231-7.97a28.6 28.6 0 0 0-3.721-6.973c-5.128-7.149-13.303-11.603-21.976-12.775-7.823-1.055-15.793.498-23 3.633 0 0 7.588 19.807 1.083 49.107l-10.87 48.668h.059l-7.707 34.517c-11.837 50.25 8.234 73.836 34.312 73.836 11.016 0 20.978-3.017 29.593-9.728 3.75-2.929 7.266-6.211 10.519-9.698-1.524 6.827-4.571 21.155-6.3 27.923-4.6 17.903-13.976 34.693-26.781 47.819-27.894 28.568-71.376 32.963-107.679 19.485-22.268-8.263-39.379-26.898-49.342-44.098-7.53 54.997 36.45 84.21 66.513 91.799 37.797 9.522 76.152 4.19 107.474-20.071 27.688-21.418 45.591-48.932 54.381-88.37 3.311-14.885 6.212-27.864 9.347-41.812l39.441-176.594h-46.034zm-342.903 0-45.386 203.287h46.031l45.386-203.287zm136.16 51.189c6.738-3.78 15.177-2.901 18.254 4.834 2.227 5.567 1.757 12.365.293 18.049l-14.709 66.922c-15.734 72.666 13.889 104.456 50.426 108.705 35.776 4.161 45.738-20.158 45.738-20.158-56.403-8.323-56.169-61.502-44.771-112.426l9.669-43.336c11.837-50.25-8.234-73.837-34.311-73.837-11.017 0-20.979 3.018-29.593 9.727a88 88 0 0 0-5.011 4.249c-1.904 1.729-3.721 3.546-5.508 5.421l-2.93 3.194v-.674c-.235-19.924-22.327-36.509-50.163-24.759 0 0 7.589 19.807 1.085 49.107l-35.073 157.021h46.031l16.994-76.122c3.136-14.035 6.124-28.012 10.695-41.665 4.307-12.804 10.548-27.367 22.913-34.311z"/></g><defs><clipPath id="a"><path fill="#fff" d="M0 0h1000v481H0z"/></clipPath></defs></svg>